<?xml version="1.0" encoding="UTF-8" standalone="no"?>
<svg
   viewBox="0 0 200 200"
   version="1.1"
   id="svg15"
   sodipodi:docname="icon-ig.svg"
   width="200"
   height="200"
   inkscape:version="1.1.1 (c3084ef, 2021-09-22)"
   xmlns:inkscape="http://www.inkscape.org/namespaces/inkscape"
   xmlns:sodipodi="http://sodipodi.sourceforge.net/DTD/sodipodi-0.dtd"
   xmlns="http://www.w3.org/2000/svg"
   xmlns:svg="http://www.w3.org/2000/svg">
  <defs
     id="defs19" />
  <sodipodi:namedview
     id="namedview17"
     pagecolor="#ffffff"
     bordercolor="#666666"
     borderopacity="1.0"
     inkscape:pageshadow="2"
     inkscape:pageopacity="0.0"
     inkscape:pagecheckerboard="0"
     showgrid="false"
     fit-margin-top="0"
     fit-margin-left="0"
     fit-margin-right="0"
     fit-margin-bottom="0"
     inkscape:zoom="2.0585938"
     inkscape:cx="169.29032"
     inkscape:cy="99.825427"
     inkscape:window-width="1280"
     inkscape:window-height="755"
     inkscape:window-x="0"
     inkscape:window-y="23"
     inkscape:window-maximized="0"
     inkscape:current-layer="svg15" />
  <rect
     fill="none"
     height="256"
     width="256"
     id="rect9"
     x="-28"
     y="-28" />
  <circle
     cx="100"
     cy="100"
     r="32"
     id="circle11" />
  <path
     d="M 144,0 H 56 A 56,56 0 0 0 0,56 v 88 a 56,56 0 0 0 56,56 h 88 a 56,56 0 0 0 56,-56 V 56 A 56,56 0 0 0 144,0 Z m -44,148 a 48,48 0 1 1 48,-48 48,48 0 0 1 -48,48 z m 52,-88 a 12,12 0 1 1 12,-12 12,12 0 0 1 -12,12 z"
     id="path13" />
</svg>
